<?xml version="1.0" encoding="UTF-8"?>
<svg id="_レイヤー_1" data-name="レイヤー 1" xmlns="http://www.w3.org/2000/svg" viewBox="0 0 500 500">
  <defs>
    <style>
      .cls-1 {
        stroke-dasharray: 0 0 12.03 12.03;
        stroke-width: 6px;
      }

      .cls-1, .cls-2, .cls-3 {
        fill: none;
        stroke: #131313;
        stroke-miterlimit: 10;
      }

      .cls-4 {
        fill: #fad0e6;
      }

      .cls-5 {
        fill: #fbfed2;
      }

      .cls-6 {
        fill: #e5fbfc;
      }

      .cls-7 {
        fill: #dffced;
      }

      .cls-8 {
        fill: #131313;
      }

      .cls-2 {
        stroke-width: 5px;
      }

      .cls-3 {
        stroke-width: 10px;
      }
    </style>
  </defs>
  <circle class="cls-3" cx="250" cy="250" r="241"/>
  <circle class="cls-1" cx="250" cy="250" r="222"/>
  <line class="cls-2" x1="185.66" y1="144.68" x2="260.94" y2="372.47"/>
  <line class="cls-2" x1="199.17" y1="281.74" x2="251" y2="377"/>
  <line class="cls-2" x1="322.72" y1="200.66" x2="277" y2="365"/>
  <g>
    <path class="cls-4" d="m159.66,112.94l-.29-.17c-7.41-4.36-12.48-11.36-14.28-19.7-3.53-16.34,6.9-32.5,23.24-36.03,2.12-.46,4.28-.69,6.43-.69,14.16,0,26.61,10.06,29.6,23.93,1.74,8.06.18,16.28-4.4,23.17l-.17.25-13.29,36.83-26.84-27.59Z"/>
    <path class="cls-8" d="m174.75,58.85c12.99,0,24.41,9.23,27.16,21.95,1.6,7.39.16,14.94-4.04,21.26l-.33.5-.2.57-11.83,32.79-23.82-24.48-.47-.48-.58-.34c-6.8-4-11.45-10.42-13.1-18.07-3.24-14.99,6.33-29.82,21.32-33.06,1.95-.42,3.93-.63,5.9-.63m0-5c-2.3,0-4.62.24-6.96.75-17.72,3.83-28.98,21.29-25.15,39,2.01,9.33,7.83,16.84,15.45,21.33l29.39,30.21,14.55-40.31c4.73-7.12,6.71-16.06,4.76-25.08-3.32-15.38-16.92-25.9-32.05-25.9h0Z"/>
  </g>
  <path class="cls-8" d="m236.57,89.25c10.57,0,20.1,5.86,24.86,15.29,3.35,6.63,3.91,14.17,1.59,21.23-2.32,7.06-7.25,12.79-13.89,16.14-3.92,1.98-8.12,2.98-12.47,2.98-3.1,0-6.17-.52-9.12-1.53l-.57-.2-.6-.06-34.72-3.19,17.69-29.22.35-.57.18-.65c2.16-7.59,7.2-13.71,14.19-17.24,3.93-1.99,8.14-2.99,12.51-2.99m0-5c-4.97,0-10.02,1.13-14.76,3.53-8.52,4.3-14.32,11.82-16.74,20.33l-21.83,36.06,42.67,3.92c3.44,1.18,7.07,1.8,10.75,1.8,4.96,0,9.99-1.13,14.73-3.52,16.18-8.17,22.68-27.91,14.51-44.09-5.77-11.44-17.33-18.04-29.32-18.04h0Z"/>
  <g>
    <path class="cls-7" d="m234.21,207.16c-6.28,0-12.31-1.92-17.46-5.56-6.73-4.75-11.15-11.87-12.44-20.04l-.05-.3-15.14-36.12,38.43,2.15.33-.07c2.12-.45,4.28-.68,6.44-.68,6.27,0,12.28,1.91,17.4,5.53,6.62,4.67,11.01,11.64,12.39,19.62,1.37,7.98-.44,16.02-5.11,22.63-5.67,8.03-14.94,12.83-24.79,12.83,0,0,0,0,0,0Z"/>
    <path class="cls-8" d="m192.98,147.87l34.1,1.91.67.04.66-.14c1.95-.42,3.94-.63,5.92-.63,5.75,0,11.27,1.75,15.96,5.07,6.07,4.29,10.11,10.68,11.37,18,1.26,7.32-.41,14.7-4.69,20.77-5.21,7.37-13.71,11.77-22.75,11.77-5.76,0-11.3-1.76-16.02-5.1-6.17-4.36-10.23-10.89-11.41-18.39l-.09-.6-.23-.56-13.48-32.15m-7.7-5.44l16.57,39.52c1.33,8.45,5.93,16.37,13.47,21.69,5.75,4.06,12.36,6.01,18.9,6.01,10.3,0,20.44-4.84,26.83-13.89,10.46-14.8,6.93-35.28-7.88-45.74-5.74-4.05-12.32-5.98-18.84-5.98-2.34,0-4.68.25-6.97.74l-42.09-2.36h0Z"/>
  </g>
  <path class="cls-8" d="m128.64,113.14c.45,0,.9.01,1.35.03,7.55.36,14.48,3.69,19.5,9.37l.4.45.5.34,28.64,19.87-29.79,16.72-.59.33-.48.47c-5.26,5.19-12.18,8.05-19.5,8.05-.44,0-.89-.01-1.34-.03-15.32-.73-27.19-13.79-26.46-29.11.71-14.86,12.9-26.5,27.76-26.5m0-5c-17.41,0-31.92,13.69-32.75,31.26-.86,18.1,13.12,33.48,31.22,34.34.53.03,1.05.04,1.58.04,8.92,0,17.06-3.62,23.01-9.49l36.76-20.63-35.21-24.43c-5.66-6.41-13.8-10.62-23.01-11.06-.53-.03-1.06-.04-1.59-.04h0Z"/>
  <path class="cls-8" d="m183.05,151.08l2.43,34.07.05.67.22.63c2.62,7.44,2.04,15.35-1.63,22.26-4.84,9.12-14.27,14.79-24.6,14.79-4.5,0-9-1.12-13.01-3.25-6.56-3.48-11.38-9.31-13.56-16.41-2.18-7.1-1.46-14.63,2.02-21.19,3.54-6.68,9.5-11.53,16.79-13.65l.58-.17.52-.3,30.18-17.45m4.42-8.33l-37.1,21.45c-8.21,2.4-15.48,7.96-19.81,16.11-8.49,16.01-2.4,35.88,13.62,44.37,4.9,2.6,10.16,3.83,15.35,3.83,11.76,0,23.13-6.34,29.02-17.45,4.47-8.43,4.86-17.92,1.93-26.27l-3-42.04h0Z"/>
  <g>
    <path class="cls-6" d="m312.73,173.17l-.2-.27c-3.44-4.54-4.78-10.1-3.78-15.66,1.72-9.58,10.02-16.53,19.73-16.53,1.19,0,2.39.11,3.57.32,10.89,1.96,18.16,12.41,16.21,23.3-.96,5.37-3.99,10.01-8.53,13.08l-.25.17-17.32,19.09-9.42-23.51Z"/>
    <path class="cls-8" d="m328.47,143.22c1.04,0,2.1.09,3.13.28,9.54,1.71,15.9,10.86,14.19,20.4-.84,4.7-3.5,8.76-7.47,11.45l-.5.34-.41.45-14.43,15.91-7.81-19.49-.25-.62-.41-.54c-3.01-3.97-4.19-8.84-3.31-13.7,1.51-8.38,8.77-14.47,17.27-14.47m0-5c-10.72,0-20.23,7.66-22.19,18.58-1.16,6.46.57,12.76,4.25,17.61l10.79,26.91,19.8-21.83c4.87-3.29,8.47-8.46,9.59-14.71,2.2-12.27-5.96-24-18.22-26.2-1.35-.24-2.69-.36-4.02-.36h0Z"/>
  </g>
  <path class="cls-8" d="m359.92,178.75c9.11,0,16.79,7.12,17.49,16.22.36,4.68-1.12,9.22-4.17,12.78-3.05,3.56-7.31,5.73-11.99,6.09-.46.04-.92.05-1.37.05-4.25,0-8.37-1.56-11.59-4.4l-.45-.4-.53-.28-19.03-9.95,16.89-12.47.54-.4.42-.53c3.09-3.91,7.5-6.28,12.43-6.66.46-.04.92-.05,1.38-.05m0-5c-.58,0-1.17.02-1.76.07-6.54.51-12.2,3.77-15.97,8.55l-23.32,17.22,26.12,13.66c4,3.52,9.23,5.64,14.89,5.64.58,0,1.17-.02,1.76-.07,12.43-.96,21.72-11.81,20.76-24.24-.91-11.84-10.8-20.83-22.48-20.83h0Z"/>
  <g>
    <path class="cls-5" d="m342.78,253.79c-6.92,0-13.26-3.48-16.97-9.32-2.92-4.6-3.83-10.07-2.57-15.4l.07-.29-.17-25.78,22.85,10.93.33.06c5.6,1.01,10.35,4.2,13.38,8.97,2.87,4.53,3.81,9.9,2.64,15.13-1.17,5.23-4.31,9.7-8.83,12.57-3.22,2.05-6.93,3.13-10.73,3.13h0Z"/>
    <path class="cls-8" d="m325.67,206.98l18.94,9.06.61.29.66.12c4.9.89,9.06,3.68,11.71,7.85,2.51,3.96,3.34,8.67,2.31,13.25s-3.77,8.49-7.73,11c-2.82,1.79-6.07,2.74-9.39,2.74-6.06,0-11.61-3.05-14.86-8.16-2.56-4.03-3.36-8.82-2.25-13.48l.14-.59v-.6s-.15-21.48-.15-21.48m-5.05-7.96l.19,29.47c-1.36,5.72-.51,11.96,2.89,17.32,4.3,6.77,11.61,10.48,19.08,10.48,4.14,0,8.32-1.14,12.07-3.52,10.52-6.68,13.64-20.63,6.96-31.15-3.52-5.54-9.06-9.01-15.04-10.09l-26.15-12.51h0Z"/>
  </g>
  <path class="cls-8" d="m285.02,165.69c2.58,0,5.08.56,7.44,1.66,4.32,2.02,7.57,5.63,9.14,10.16l.2.57.33.51,11.66,18.04-20.84,2.54-.67.08-.62.25c-2.15.88-4.41,1.33-6.71,1.33-2.56,0-5.05-.56-7.39-1.65-4.25-1.99-7.47-5.52-9.07-9.93-1.6-4.41-1.38-9.18.61-13.43,2.88-6.15,9.13-10.12,15.93-10.12m0-5c-8.49,0-16.62,4.81-20.45,13-5.29,11.29-.42,24.72,10.87,30.01,3.08,1.44,6.32,2.12,9.51,2.12,2.96,0,5.89-.59,8.6-1.7l28.78-3.5-16-24.75c-1.93-5.56-6-10.36-11.74-13.05-3.09-1.45-6.35-2.13-9.56-2.13h0Z"/>
  <path class="cls-8" d="m314.67,205.82l-6.58,19.94-.21.64-.03.67c-.26,4.98-2.5,9.46-6.3,12.61-3.15,2.61-7.13,4.05-11.21,4.05-5.25,0-10.18-2.31-13.53-6.35-3-3.61-4.41-8.17-3.98-12.85.43-4.67,2.66-8.9,6.27-11.89,3.14-2.6,7.11-4.04,11.2-4.04.63,0,1.27.03,1.89.1l.6.06.6-.08,21.29-2.87m7.25-6.02l-29.21,3.93c-.8-.09-1.61-.13-2.42-.13-5.08,0-10.18,1.7-14.39,5.19-9.59,7.96-10.91,22.19-2.95,31.78,4.46,5.38,10.9,8.16,17.38,8.16,5.08,0,10.19-1.71,14.4-5.2,5.05-4.19,7.78-10.12,8.1-16.2l9.09-27.53h0Z"/>
  <path class="cls-8" d="m184.4,224.65c7.2,0,13.6,4.31,16.3,10.99,1.79,4.43,1.71,9.28-.22,13.67l-.24.55-.1.59-3.73,21.15-16.99-12.33-.54-.39-.63-.24c-4.66-1.76-8.25-5.25-10.1-9.83-1.76-4.35-1.72-9.13.11-13.45,1.83-4.32,5.24-7.67,9.59-9.43,2.11-.85,4.33-1.29,6.58-1.29m0-5c-2.82,0-5.68.53-8.45,1.65-11.56,4.67-17.14,17.83-12.46,29.38,2.46,6.09,7.28,10.49,12.98,12.64l23.46,17.02,5.12-29.02c2.37-5.38,2.66-11.67.28-17.56-3.55-8.78-12.01-14.12-20.93-14.12h0Z"/>
  <g>
    <path class="cls-5" d="m209.94,253.79l.04-.33c.6-5.66,3.43-10.63,7.96-14,3.49-2.59,7.62-3.96,11.95-3.96,6.42,0,12.3,2.95,16.13,8.1,6.6,8.88,4.74,21.48-4.14,28.08-3.48,2.58-7.6,3.95-11.93,3.95h0c-1.08,0-2.17-.09-3.24-.26l-.3-.05-25.69,2.06,9.22-23.59Z"/>
    <path class="cls-8" d="m229.89,238c5.62,0,10.77,2.59,14.12,7.09,5.78,7.78,4.15,18.8-3.62,24.58-3.04,2.26-6.66,3.46-10.44,3.46-.95,0-1.9-.08-2.84-.23l-.6-.1-.6.05-21.41,1.72,7.65-19.55.24-.63.07-.67c.53-4.96,3-9.31,6.97-12.26,3.05-2.27,6.67-3.47,10.46-3.47h0m0-5c-4.68,0-9.4,1.45-13.44,4.46-5.27,3.92-8.32,9.69-8.96,15.74l-10.56,27,29.38-2.36c1.2.19,2.42.29,3.63.29,4.67,0,9.39-1.44,13.43-4.44,10-7.43,12.09-21.57,4.65-31.58-4.43-5.96-11.24-9.11-18.13-9.11h0Z"/>
  </g>
  <g>
    <path class="cls-4" d="m235.31,316.42c-2.98,0-5.87-.65-8.59-1.95-4.93-2.34-8.61-6.48-10.38-11.67l-.1-.29-13.88-21.72,25.16-2.92.31-.12c2.42-.98,4.96-1.47,7.55-1.47,2.97,0,5.84.65,8.54,1.93,4.84,2.3,8.5,6.35,10.3,11.4,1.8,5.05,1.52,10.5-.78,15.34-3.31,6.96-10.43,11.47-18.14,11.47,0,0,0,0,0,0Z"/>
    <path class="cls-8" d="m235.39,278.78c2.6,0,5.11.57,7.47,1.69,8.75,4.16,12.49,14.66,8.33,23.41-2.9,6.1-9.13,10.04-15.89,10.04-2.61,0-5.14-.57-7.52-1.7-4.31-2.05-7.54-5.67-9.08-10.21l-.19-.57-.32-.51-11.56-18.1,20.85-2.42.67-.08.62-.25c2.13-.86,4.35-1.29,6.62-1.29m0-5c-2.92,0-5.81.57-8.49,1.65l-28.79,3.35,15.87,24.84c1.9,5.57,5.94,10.4,11.67,13.12,3.13,1.48,6.42,2.19,9.67,2.19,8.44,0,16.54-4.76,20.4-12.89,5.35-11.26.55-24.72-10.71-30.07-3.11-1.48-6.39-2.17-9.62-2.17h0Z"/>
  </g>
  <g>
    <path class="cls-6" d="m159.55,304.49c-10.09,0-18.64-7.56-19.89-17.59-.66-5.32.78-10.58,4.08-14.81s8.04-6.93,13.36-7.59c.83-.1,1.67-.16,2.5-.16,4.52,0,8.96,1.57,12.52,4.42l.24.19,23.38,10.86-19.65,15.99-.2.27c-3.31,4.63-8.22,7.56-13.83,8.26-.83.1-1.68.16-2.51.16h0Z"/>
    <path class="cls-8" d="m159.59,266.85c3.95,0,7.84,1.37,10.96,3.87l.47.38.55.25,19.48,9.05-16.29,13.25-.52.42-.39.55c-2.9,4.05-7.2,6.62-12.1,7.24-.73.09-1.47.14-2.2.14-8.83,0-16.31-6.62-17.41-15.4-.58-4.66.69-9.26,3.57-12.96s7.03-6.06,11.69-6.64c.73-.09,1.47-.14,2.19-.14m0-5c-.93,0-1.87.06-2.81.18-12.37,1.54-21.15,12.82-19.6,25.19,1.42,11.42,11.15,19.78,22.37,19.78.93,0,1.87-.06,2.82-.18,6.51-.81,12.01-4.34,15.55-9.29l22.49-18.3-26.73-12.42c-3.9-3.12-8.83-4.96-14.08-4.96h0Z"/>
  </g>
  <path class="cls-8" d="m196.7,287.7l5.05,20.38.16.65.33.59c2.43,4.35,2.93,9.33,1.39,14.03-2.37,7.25-9.08,12.11-16.69,12.11-1.85,0-3.69-.29-5.47-.88-4.46-1.46-8.09-4.57-10.21-8.75-2.12-4.19-2.49-8.95-1.03-13.41,1.48-4.54,4.67-8.2,8.98-10.31l.54-.27.46-.39,16.49-13.77m2.93-8.96l-22.62,18.89c-5.28,2.59-9.56,7.21-11.53,13.24-3.87,11.85,2.59,24.59,14.44,28.47,2.33.76,4.69,1.12,7.02,1.12,9.5,0,18.33-6.04,21.45-15.56,2.04-6.24,1.19-12.72-1.78-18.03l-6.97-28.14h0Z"/>
  <path class="cls-2" d="m417.97,373.29c-88.48-45.15-196.46-10.4-241.42,77.7"/>
</svg>